<?xml version="1.0" encoding="UTF-8"?>
<svg id="Layer_2" xmlns="http://www.w3.org/2000/svg" viewBox="0 0 280 280">
    <defs>
        <style>.cls-1{fill:#36f;}.cls-2{fill:#fff;stroke:#fff;stroke-miterlimit:10;stroke-width:12px;}</style>
    </defs>
    <g id="Layer_1-2">
        <rect class="cls-1 text-indigo-500" width="280" height="280" rx="40.5" ry="40.5"/>
        <path class="cls-2" stroke-width="12px" stroke-miterlimit="10"
              d="M108.7,235.8c38.1-.6,108.8-56.1,115-90.7,3-16.7-13.6-19-23.2-1.1s-12.9,20.9-19.6,25-17,2-22-3c-10.8-10.8-19-35-22-42-15.2-35.5-3.2-52.5,0-61,6-16-14-27-24-8.2,0,0-32.4,64.3-50.1,86.4-15.5,19.3-1.5,30.2,11.8,22.1,11.5-7,25.1-33.2,29-37.5,6.2-6.8,14.9-3.8,20.2,2.2,8,9,18.1,37.8,15.1,62.2-3,24.3-30.1,25.6-33,25.8-15.1,1.1-11.1,20.1,2.6,19.9Z"/>
    </g>
</svg>