<?xml version="1.0" encoding="UTF-8"?><svg id="Layer_2" xmlns="http://www.w3.org/2000/svg" viewBox="0 0 280 280"><defs><style>.cls-1{fill:#aa3c3c;}.cls-2{fill:#ededed;}</style></defs><g id="Layer_1-2"><rect class="cls-1" width="280" height="280" rx="40.5" ry="40.5"/><path class="cls-2" d="M200,152c9.4-17.9,27.4-13.4,23,3-9,34-84,78-122,81-27.1,2.1-35-20-38-35s19-20,21.5-4.5,15.5,17.5,18.4,17.3,27.1,3.2,32.1-20.8-12-61-18-69-9-3-12,2-10,21-16,33-28,12-15-13S120,56,120,56c4-8,14-12,20-5.2s2,12.2,2,12.2c0,0-13.8,28.9,0,65s9,48,13,59,19-3,23-6,12-10,22-29Z"/></g></svg>